#N canvas 698 702 864 316 10;
#X msg 26 45 create \, 1;
#X msg 58 67 0 \, destroy;
#X obj 26 89 gemwin;
#X text 380 62 graph data (0-1) in the Gem window;
#X obj 261 104 hsl 128 15 0 127 0 0 empty empty empty -2 -8 0 10 -262144
-1 -1 5700 1;
#X obj 258 135 / 127;
#X obj 174 50 gemhead;
#X obj 174 74 colorRGB 1 1 0;
#X obj 174 179 bubblegraph 0.06;
#X connect 0 0 2 0;
#X connect 1 0 2 0;
#X connect 4 0 5 0;
#X connect 5 0 8 1;
#X connect 6 0 7 0;
#X connect 7 0 8 0;
