#N canvas 1298 360 450 300 10;
#X obj 179 141 change;
#X msg 201 104 0;
#X msg 146 105 1;
#X obj 123 54 t a b b;
#X obj 123 17 inlet;
#X obj 201 78 delay \$1;
#X obj 123 182 outlet;
#X obj 179 182 outlet;
#X obj 245 125 loadbang;
#X msg 245 147 0;
#X connect 0 0 7 0;
#X connect 1 0 0 0;
#X connect 2 0 0 0;
#X connect 3 0 6 0;
#X connect 3 1 2 0;
#X connect 3 2 5 0;
#X connect 4 0 3 0;
#X connect 5 0 1 0;
#X connect 8 0 9 0;
#X connect 9 0 7 0;
