#N canvas 508 591 606 308 10;
#X obj 96 158 tgl 15 0 empty empty empty 17 7 0 10 -262144 -1 -1 0
1;
#X obj 31 47 hsl 128 15 0 127 0 0 empty empty empty -2 -8 0 10 -262144
-1 -1 7000 1;
#X obj 31 112 idle 2000;
#X obj 30 216 hsl 128 15 0 127 0 0 empty empty empty -2 -8 0 10 -262144
-1 -1 7000 1;
#X text 144 105 can switch something off when no more input for some
time;
#X connect 1 0 2 0;
#X connect 2 0 3 0;
#X connect 2 1 0 0;
