#N canvas 846 225 1055 627 10;
#X msg 256 74 listen 9000;
#X obj 34 92 gemwin 60;
#X msg 55 54 0 \, destroy;
#N canvas 593 279 330 94 scene_lighting 0;
#X obj 8 52 world_light;
#X obj 136 31 rotateXYZ 260 -90 -260;
#X obj 136 53 light;
#X obj 136 9 gemhead 80;
#X obj 8 9 gemhead 90;
#X obj 8 31 rotateXYZ -30 0 0;
#X connect 1 0 2 0;
#X connect 3 0 1 0;
#X connect 4 0 5 0;
#X connect 5 0 0 0;
#X restore 33 183 pd scene_lighting;
#X obj 34 261 gemhead;
#X obj 256 266 route X Y Z;
#X floatatom 256 372 5 0 0 0 - - -, f 5;
#X floatatom 280 341 5 0 0 0 - - -, f 5;
#X floatatom 305 316 5 0 0 0 - - -, f 5;
#X obj 363 266 route X Y Z;
#X floatatom 363 379 5 0 0 0 - - -, f 5;
#X floatatom 387 342 5 0 0 0 - - -, f 5;
#X floatatom 412 314 5 0 0 0 - - -, f 5;
#X obj 470 264 route X Y Z;
#X floatatom 470 404 5 0 0 0 - - -, f 5;
#X floatatom 494 356 5 0 0 0 - - -, f 5;
#X floatatom 520 306 5 0 0 0 - - -, f 5;
#X obj 561 264 route X Y Z;
#X floatatom 561 377 5 0 0 0 - - -, f 5;
#X floatatom 585 340 5 0 0 0 - - -, f 5;
#X floatatom 610 312 5 0 0 0 - - -, f 5;
#X msg 268 94 listen 0;
#X floatatom 654 378 5 0 0 0 - - -, f 5;
#X floatatom 678 341 5 0 0 0 - - -, f 5;
#X floatatom 703 313 5 0 0 0 - - -, f 5;
#X obj 654 265 route X Y Z cos;
#X floatatom 730 294 5 0 0 0 - - -, f 5;
#X floatatom 774 341 8 0 0 0 - - -, f 8;
#X floatatom 821 359 5 0 0 0 - - -, f 5;
#X floatatom 871 345 5 0 0 0 - - -, f 5;
#X obj 774 267 route X Y Z cos;
#X floatatom 860 296 5 0 0 0 - - -, f 5;
#X floatatom 54 384 5 0 0 0 - - -, f 5;
#X obj 774 388 / 2;
#X obj 774 412 * 360;
#X obj 774 365 * -1;
#X obj 821 411 / 2;
#X obj 821 460 * 360;
#X obj 871 442 / 2;
#X obj 872 482 * 360;
#X floatatom 94 427 5 0 0 0 - - -, f 5;
#X obj 871 378 + 1;
#X floatatom 894 401 5 0 0 0 - - -, f 5;
#X floatatom 908 462 5 0 0 0 - - -, f 5;
#X obj 821 388 * 1;
#X floatatom 74 409 5 0 0 0 - - -, f 5;
#X obj 871 316 * 360;
#N canvas 1351 695 310 322 phonebrick 0;
#X obj 71 176 pix_texture;
#X obj 71 126 alpha;
#X obj 71 197 rectangle 0.45 1;
#X obj 71 154 pix_image xperia-z3plus.png;
#X obj 71 34 inlet;
#X obj 71 67 cuboid 0.45 1 0.03;
#X obj 71 99 translateXYZ 0 0 0.031;
#X connect 0 0 2 0;
#X connect 1 0 3 0;
#X connect 3 0 0 0;
#X connect 4 0 5 0;
#X connect 5 0 6 0;
#X connect 6 0 1 0;
#X restore 34 541 pd phonebrick;
#N canvas 1 54 450 300 grid 0;
#X obj 60 63 cartesianspace;
#X obj 60 22 gemhead 60;
#X obj 60 42 translateXYZ 1.9 0 0;
#X connect 1 0 2 0;
#X connect 2 0 0 0;
#X restore 33 205 pd grid;
#N canvas 245 725 223 198 OSCreceive 0;
#X obj 32 81 oscparse;
#X obj 32 51 netreceive -u -b;
#X obj 32 104 list trim;
#X obj 32 27 inlet;
#X obj 32 127 outlet;
#X connect 0 0 2 0;
#X connect 1 0 0 0;
#X connect 2 0 4 0;
#X connect 3 0 1 0;
#X restore 256 135 pd OSCreceive;
#X obj 256 459 + 10;
#X obj 256 481 / 20;
#X obj 363 419 + 40;
#X obj 363 441 / 80;
#X msg 34 21 reset \, dimen 800 800 \, title sensors2OSC \, lighting
1 \, create \, 1;
#X floatatom 774 479 5 0 0 0 - - -, f 5;
#X obj 256 202 route accelerometer magneticfield orientation gyroscope
rotationvector georotationvector gamerotationvector;
#X obj 954 262 route X Y Z;
#X floatatom 954 389 5 0 0 0 - - -, f 5;
#X floatatom 979 345 5 0 0 0 - - -, f 5;
#X floatatom 1003 298 5 0 0 0 - - -, f 5;
#X obj 1003 318 * -180;
#X obj 979 365 * -180;
#X obj 954 417 * -180;
#X obj 34 497 rotate;
#X obj 34 450 rotateXYZ;
#X obj 494 373 * -1;
#X obj 34 327 rotateXYZ 270 0 0;
#X obj 353 478 gemhead;
#X obj 375 578 bubblegraph 0.06;
#X obj 182 493 gemhead;
#X obj 182 548 colorRGB 1 1 0;
#X obj 183 589 polygongraph 0.06;
#X obj 606 532 bubblegraph 0.06;
#X obj 517 325 * -1;
#X obj 471 426 * -1;
#X obj 573 444 gemhead;
#X obj 375 540 colorRGB 0 0.5 1;
#X obj 601 509 colorRGB 0 1 0.5;
#X obj 587 482 translateXYZ 0 1 -4.5;
#X obj 364 515 translateXYZ 0 1 -4.5;
#X obj 177 518 translateXYZ 0 1 -4.5;
#X obj 7 25 cnv 15 20 20 empty empty 1 6 10 0 14 -222038 -262144 0
;
#X obj 232 71 cnv 15 20 20 empty empty 2 6 10 0 14 -222038 -262144
0;
#X obj 7 25 cnv 15 20 20 empty empty 1 6 10 0 14 -222038 -262144 0
;
#X obj 467 79 cnv 15 20 20 empty empty 3 6 10 0 14 -222038 -262144
0;
#X text 497 80 Launch Sensors2OSD on Android phone. Activate sending
on port 9000 to IP of computer Activate sending of orientation Change
orientation of phone and observe GEM window;
#X connect 0 0 49 0;
#X connect 2 0 1 0;
#X connect 4 0 67 0;
#X connect 5 0 6 0;
#X connect 5 1 7 0;
#X connect 5 2 8 0;
#X connect 6 0 50 0;
#X connect 9 0 10 0;
#X connect 9 1 11 0;
#X connect 9 2 12 0;
#X connect 10 0 52 0;
#X connect 13 0 14 0;
#X connect 13 1 15 0;
#X connect 13 2 16 0;
#X connect 14 0 75 0;
#X connect 15 0 66 0;
#X connect 16 0 74 0;
#X connect 17 0 18 0;
#X connect 17 1 19 0;
#X connect 17 2 20 0;
#X connect 21 0 49 0;
#X connect 25 0 22 0;
#X connect 25 1 23 0;
#X connect 25 2 24 0;
#X connect 25 3 26 0;
#X connect 27 0 35 0;
#X connect 27 0 73 1;
#X connect 28 0 44 0;
#X connect 29 0 41 0;
#X connect 30 0 27 0;
#X connect 30 1 28 0;
#X connect 30 2 29 0;
#X connect 30 3 31 0;
#X connect 31 0 46 0;
#X connect 32 0 65 1;
#X connect 33 0 34 0;
#X connect 34 0 55 0;
#X connect 35 0 33 0;
#X connect 36 0 37 0;
#X connect 38 0 39 0;
#X connect 38 0 43 0;
#X connect 40 0 65 3;
#X connect 41 0 38 0;
#X connect 41 0 42 0;
#X connect 44 0 36 0;
#X connect 45 0 65 2;
#X connect 49 0 56 0;
#X connect 50 0 51 0;
#X connect 51 0 72 1;
#X connect 52 0 53 0;
#X connect 53 0 69 1;
#X connect 54 0 1 0;
#X connect 56 0 5 0;
#X connect 56 1 9 0;
#X connect 56 2 13 0;
#X connect 56 3 17 0;
#X connect 56 4 25 0;
#X connect 56 5 30 0;
#X connect 56 6 57 0;
#X connect 57 0 58 0;
#X connect 57 1 59 0;
#X connect 57 2 60 0;
#X connect 58 0 63 0;
#X connect 59 0 62 0;
#X connect 60 0 61 0;
#X connect 64 0 47 0;
#X connect 65 0 64 0;
#X connect 66 0 32 0;
#X connect 67 0 65 0;
#X connect 68 0 80 0;
#X connect 70 0 81 0;
#X connect 71 0 72 0;
#X connect 74 0 45 0;
#X connect 76 0 79 0;
#X connect 77 0 69 0;
#X connect 78 0 73 0;
#X connect 79 0 78 0;
#X connect 80 0 77 0;
#X connect 81 0 71 0;
