#N canvas 818 100 1055 928 10;
#X msg 425 13 listen 9000;
#X obj 15 71 gemwin 60;
#X msg 29 40 0 \, destroy;
#N canvas 593 279 330 94 scene_lighting 0;
#X obj 8 52 world_light;
#X obj 136 31 rotateXYZ 260 -90 -260;
#X obj 136 53 light;
#X obj 136 9 gemhead 80;
#X obj 8 9 gemhead 90;
#X obj 8 31 rotateXYZ -30 0 0;
#X connect 1 0 2 0;
#X connect 3 0 1 0;
#X connect 4 0 5 0;
#X connect 5 0 0 0;
#X restore 15 120 pd scene_lighting;
#X msg 439 43 listen 0;
#N canvas 1 57 450 300 grid 0;
#X obj 60 22 gemhead 60;
#X obj 60 133 tubegrid 15 0.01;
#X obj 60 111 colorRGB 0.1 0.1 0.1;
#X connect 0 0 2 0;
#X connect 2 0 1 0;
#X restore 15 142 pd grid;
#N canvas 245 725 223 198 OSCreceive 0;
#X obj 32 81 oscparse;
#X obj 32 51 netreceive -u -b;
#X obj 32 104 list trim;
#X obj 32 27 inlet;
#X obj 32 127 outlet;
#X connect 0 0 2 0;
#X connect 1 0 0 0;
#X connect 2 0 4 0;
#X connect 3 0 1 0;
#X restore 425 74 pd OSCreceive;
#X obj 425 101 getSensor accelerometer;
#X floatatom 575 242 5 0 0 0 - - -, f 5;
#X floatatom 564 271 5 0 0 0 - - -, f 5;
#X floatatom 567 297 5 0 0 0 - - -, f 5;
#X floatatom 569 523 5 0 0 0 - - -, f 5;
#X floatatom 577 567 5 0 0 0 - - -, f 5;
#X floatatom 559 623 5 0 0 0 - - -, f 5;
#N canvas 952 287 904 741 accelerometer 0;
#X obj 44 30 inlet;
#X obj 44 68 route X Y Z;
#X floatatom 44 159 5 0 0 0 - - -, f 5;
#X floatatom 84 139 5 0 0 0 - - -, f 5;
#X floatatom 108 110 5 0 0 0 - - -, f 5;
#X text 223 200 https://developer.android.com/reference/android/hardware/SensorEvent.html#values
;
#X text 223 138 resting value is the constant g. (9.81 m/s^2);
#X text 223 96 values are in gravitational free fall accelleration
in meters per second square;
#X obj 44 404 / 30;
#X obj 201 408 / 30;
#X obj 358 413 / 30;
#X obj 46 525 gemhead;
#X obj 206 528 gemhead;
#X obj 358 527 gemhead;
#X obj 46 619 colorRGB 1 1 0;
#X obj 46 644 polygongraph;
#X obj 205 618 colorRGB 0 1 1;
#X obj 205 643 polygongraph;
#X obj 357 622 colorRGB 1 0 1;
#X obj 357 647 polygongraph;
#X obj 358 488 idle 1000;
#X obj 201 485 idle 1000;
#X obj 44 492 idle 1000;
#X obj 46 556 scaleXYZ 1.5 1 1;
#X obj 46 582 translateXYZ 0 2 0.1;
#X obj 204 556 scaleXYZ 1.5 1 1;
#X obj 205 585 translateXYZ 0 2 0.1;
#X obj 358 559 scaleXYZ 1.5 1 1;
#X obj 359 588 translateXYZ 0 2 0.1;
#X connect 0 0 1 0;
#X connect 1 0 2 0;
#X connect 1 1 3 0;
#X connect 1 2 4 0;
#X connect 2 0 8 0;
#X connect 3 0 9 0;
#X connect 4 0 10 0;
#X connect 8 0 22 0;
#X connect 9 0 21 0;
#X connect 10 0 20 0;
#X connect 11 0 23 0;
#X connect 12 0 25 0;
#X connect 13 0 27 0;
#X connect 14 0 15 0;
#X connect 16 0 17 0;
#X connect 18 0 19 0;
#X connect 20 0 19 1;
#X connect 20 1 13 0;
#X connect 21 0 17 1;
#X connect 21 1 12 0;
#X connect 22 0 15 1;
#X connect 22 1 11 0;
#X connect 23 0 24 0;
#X connect 24 0 14 0;
#X connect 25 0 26 0;
#X connect 26 0 16 0;
#X connect 27 0 28 0;
#X connect 28 0 18 0;
#X restore 610 102 pd accelerometer;
#N canvas 837 164 920 789 magneticfield 0;
#X obj 44 30 inlet;
#X obj 44 68 route X Y Z;
#X floatatom 44 159 5 0 0 0 - - -, f 5;
#X floatatom 84 139 5 0 0 0 - - -, f 5;
#X floatatom 108 110 5 0 0 0 - - -, f 5;
#X text 223 200 https://developer.android.com/reference/android/hardware/SensorEvent.html#values
;
#X text 223 138 resting value is the constant g. (9.81 m/s^2);
#X text 223 96 values are in gravitational free fall accelleration
in meters per second square;
#X obj 44 382 + 15;
#X obj 44 404 / 30;
#X obj 201 386 + 15;
#X obj 201 408 / 30;
#X obj 358 391 + 15;
#X obj 358 413 / 30;
#X obj 46 593 gemhead;
#X obj 205 594 gemhead;
#X obj 357 596 gemhead;
#X obj 46 619 colorRGB 1 1 0;
#X obj 46 644 polygongraph;
#X obj 205 618 colorRGB 0 1 1;
#X obj 205 643 polygongraph;
#X obj 357 622 colorRGB 1 0 1;
#X obj 357 647 polygongraph;
#X obj 358 488 idle 1000;
#X obj 201 485 idle 1000;
#X obj 44 492 idle 1000;
#X connect 0 0 1 0;
#X connect 1 0 2 0;
#X connect 1 1 3 0;
#X connect 1 2 4 0;
#X connect 2 0 8 0;
#X connect 3 0 10 0;
#X connect 4 0 12 0;
#X connect 8 0 9 0;
#X connect 9 0 25 0;
#X connect 10 0 11 0;
#X connect 11 0 24 0;
#X connect 12 0 13 0;
#X connect 13 0 23 0;
#X connect 14 0 17 0;
#X connect 15 0 19 0;
#X connect 16 0 21 0;
#X connect 17 0 18 0;
#X connect 19 0 20 0;
#X connect 21 0 22 0;
#X connect 23 0 22 1;
#X connect 23 1 16 0;
#X connect 24 0 20 1;
#X connect 24 1 15 0;
#X connect 25 0 18 1;
#X connect 25 1 14 0;
#X restore 609 131 pd magneticfield;
#X text 748 134 X \, Y \, Z;
#X text 749 104 X \, Y \, Z;
#X msg 15 13 dimen 800 800 \, title Sensors2OSC \, lighting 1 \, create
\, 1;
#N canvas 524 122 1277 735 mfuncalibrated 0;
#X obj 44 30 inlet;
#X floatatom 44 159 5 0 0 0 - - -, f 5;
#X floatatom 84 139 5 0 0 0 - - -, f 5;
#X floatatom 108 110 5 0 0 0 - - -, f 5;
#X obj 44 68 route X Y Z dX dY dZ;
#X floatatom 182 145 5 0 0 0 - - -, f 5;
#X floatatom 222 125 5 0 0 0 - - -, f 5;
#X floatatom 246 96 5 0 0 0 - - -, f 5;
#X obj 44 382 + 25;
#X obj 44 404 / 70;
#X obj 201 408 / 70;
#X obj 358 413 / 70;
#X obj 201 386 + 25;
#X obj 358 391 + 25;
#X obj 686 412 / 2;
#X obj 843 416 / 40;
#X obj 529 407 / 40;
#X obj 46 593 gemhead;
#X obj 205 594 gemhead;
#X obj 357 596 gemhead;
#X obj 46 619 colorRGB 1 1 0;
#X obj 46 644 polygongraph;
#X obj 205 618 colorRGB 0 1 1;
#X obj 205 643 polygongraph;
#X obj 357 622 colorRGB 1 0 1;
#X obj 357 647 polygongraph;
#X obj 358 488 idle 1000;
#X obj 201 485 idle 1000;
#X obj 44 492 idle 1000;
#X obj 529 592 gemhead;
#X obj 688 593 gemhead;
#X obj 840 595 gemhead;
#X obj 529 643 polygongraph;
#X obj 688 642 polygongraph;
#X obj 840 646 polygongraph;
#X obj 841 487 idle 1000;
#X obj 684 484 idle 1000;
#X obj 527 491 idle 1000;
#X obj 529 618 colorRGB 1 0.5 0;
#X obj 688 617 colorRGB 0 1 0;
#X obj 840 621 colorRGB 0 0 1;
#X connect 0 0 4 0;
#X connect 1 0 8 0;
#X connect 2 0 12 0;
#X connect 3 0 13 0;
#X connect 4 0 1 0;
#X connect 4 1 2 0;
#X connect 4 2 3 0;
#X connect 4 3 5 0;
#X connect 4 4 6 0;
#X connect 4 5 7 0;
#X connect 5 0 16 0;
#X connect 6 0 14 0;
#X connect 7 0 15 0;
#X connect 8 0 9 0;
#X connect 9 0 28 0;
#X connect 10 0 27 0;
#X connect 11 0 26 0;
#X connect 12 0 10 0;
#X connect 13 0 11 0;
#X connect 14 0 36 0;
#X connect 15 0 35 0;
#X connect 16 0 37 0;
#X connect 17 0 20 0;
#X connect 18 0 22 0;
#X connect 19 0 24 0;
#X connect 20 0 21 0;
#X connect 22 0 23 0;
#X connect 24 0 25 0;
#X connect 26 0 25 1;
#X connect 26 1 19 0;
#X connect 27 0 23 1;
#X connect 27 1 18 0;
#X connect 28 0 21 1;
#X connect 28 1 17 0;
#X connect 29 0 38 0;
#X connect 30 0 39 0;
#X connect 31 0 40 0;
#X connect 35 0 34 1;
#X connect 35 1 31 0;
#X connect 36 0 33 1;
#X connect 36 1 30 0;
#X connect 37 0 32 1;
#X connect 37 1 29 0;
#X connect 38 0 32 0;
#X connect 39 0 33 0;
#X connect 40 0 34 0;
#X restore 692 160 pd mfuncalibrated;
#X text 830 159 X \, Y \, Z \, dX \, dY \, dZ;
#N canvas 128 292 1277 735 gyuncalibrated 0;
#X obj 44 30 inlet;
#X floatatom 44 159 5 0 0 0 - - -, f 5;
#X floatatom 84 139 5 0 0 0 - - -, f 5;
#X floatatom 108 110 5 0 0 0 - - -, f 5;
#X obj 44 68 route X Y Z dX dY dZ;
#X floatatom 182 145 5 0 0 0 - - -, f 5;
#X floatatom 222 125 5 0 0 0 - - -, f 5;
#X floatatom 246 96 5 0 0 0 - - -, f 5;
#X obj 44 382 + 25;
#X obj 44 404 / 70;
#X obj 201 408 / 70;
#X obj 358 413 / 70;
#X obj 201 386 + 25;
#X obj 358 391 + 25;
#X obj 686 412 / 2;
#X obj 843 416 / 40;
#X obj 529 407 / 40;
#X obj 46 593 gemhead;
#X obj 205 594 gemhead;
#X obj 357 596 gemhead;
#X obj 46 619 colorRGB 1 1 0;
#X obj 46 644 polygongraph;
#X obj 205 618 colorRGB 0 1 1;
#X obj 205 643 polygongraph;
#X obj 357 622 colorRGB 1 0 1;
#X obj 357 647 polygongraph;
#X obj 358 488 idle 1000;
#X obj 201 485 idle 1000;
#X obj 44 492 idle 1000;
#X obj 529 592 gemhead;
#X obj 688 593 gemhead;
#X obj 840 595 gemhead;
#X obj 529 643 polygongraph;
#X obj 688 642 polygongraph;
#X obj 840 646 polygongraph;
#X obj 841 487 idle 1000;
#X obj 684 484 idle 1000;
#X obj 527 491 idle 1000;
#X obj 529 618 colorRGB 1 0.5 0;
#X obj 688 617 colorRGB 0 1 0;
#X obj 840 621 colorRGB 0 0 1;
#X connect 0 0 4 0;
#X connect 1 0 8 0;
#X connect 2 0 12 0;
#X connect 3 0 13 0;
#X connect 4 0 1 0;
#X connect 4 1 2 0;
#X connect 4 2 3 0;
#X connect 4 3 5 0;
#X connect 4 4 6 0;
#X connect 4 5 7 0;
#X connect 5 0 16 0;
#X connect 6 0 14 0;
#X connect 7 0 15 0;
#X connect 8 0 9 0;
#X connect 9 0 28 0;
#X connect 10 0 27 0;
#X connect 11 0 26 0;
#X connect 12 0 10 0;
#X connect 13 0 11 0;
#X connect 14 0 36 0;
#X connect 15 0 35 0;
#X connect 16 0 37 0;
#X connect 17 0 20 0;
#X connect 18 0 22 0;
#X connect 19 0 24 0;
#X connect 20 0 21 0;
#X connect 22 0 23 0;
#X connect 24 0 25 0;
#X connect 26 0 25 1;
#X connect 26 1 19 0;
#X connect 27 0 23 1;
#X connect 27 1 18 0;
#X connect 28 0 21 1;
#X connect 28 1 17 0;
#X connect 29 0 38 0;
#X connect 30 0 39 0;
#X connect 31 0 40 0;
#X connect 35 0 34 1;
#X connect 35 1 31 0;
#X connect 36 0 33 1;
#X connect 36 1 30 0;
#X connect 37 0 32 1;
#X connect 37 1 29 0;
#X connect 38 0 32 0;
#X connect 39 0 33 0;
#X connect 40 0 34 0;
#X restore 658 214 pd gyuncalibrated;
#X text 800 215 X \, Y \, Z \, dX \, dY \, dZ;
#N canvas 796 201 904 741 gyroscope 0;
#X obj 44 30 inlet;
#X obj 44 68 route X Y Z;
#X floatatom 44 159 5 0 0 0 - - -, f 5;
#X floatatom 84 139 5 0 0 0 - - -, f 5;
#X floatatom 108 110 5 0 0 0 - - -, f 5;
#X obj 46 593 gemhead;
#X obj 205 594 gemhead;
#X obj 357 596 gemhead;
#X obj 46 619 colorRGB 1 1 0;
#X obj 46 644 polygongraph;
#X obj 205 618 colorRGB 0 1 1;
#X obj 205 643 polygongraph;
#X obj 357 622 colorRGB 1 0 1;
#X obj 357 647 polygongraph;
#X obj 358 488 idle 1000;
#X obj 201 485 idle 1000;
#X obj 44 492 idle 1000;
#X obj 44 404 / 40;
#X obj 201 408 / 40;
#X obj 358 415 / 40;
#X connect 0 0 1 0;
#X connect 1 0 2 0;
#X connect 1 1 3 0;
#X connect 1 2 4 0;
#X connect 2 0 17 0;
#X connect 3 0 18 0;
#X connect 4 0 19 0;
#X connect 5 0 8 0;
#X connect 6 0 10 0;
#X connect 7 0 12 0;
#X connect 8 0 9 0;
#X connect 10 0 11 0;
#X connect 12 0 13 0;
#X connect 14 0 13 1;
#X connect 14 1 7 0;
#X connect 15 0 11 1;
#X connect 15 1 6 0;
#X connect 16 0 9 1;
#X connect 16 1 5 0;
#X connect 17 0 16 0;
#X connect 18 0 15 0;
#X connect 19 0 14 0;
#X restore 601 186 pd gyroscope;
#X text 705 189 X \, Y \, Z;
#X text 658 327 X \, Y \, Z;
#N canvas 796 201 904 741 gravity 0;
#X obj 44 30 inlet;
#X obj 44 68 route X Y Z;
#X floatatom 44 159 5 0 0 0 - - -, f 5;
#X floatatom 84 139 5 0 0 0 - - -, f 5;
#X floatatom 108 110 5 0 0 0 - - -, f 5;
#X obj 46 593 gemhead;
#X obj 205 594 gemhead;
#X obj 357 596 gemhead;
#X obj 46 619 colorRGB 1 1 0;
#X obj 46 644 polygongraph;
#X obj 205 618 colorRGB 0 1 1;
#X obj 205 643 polygongraph;
#X obj 357 622 colorRGB 1 0 1;
#X obj 357 647 polygongraph;
#X obj 358 488 idle 1000;
#X obj 201 485 idle 1000;
#X obj 44 492 idle 1000;
#X obj 44 404 / 40;
#X obj 201 408 / 40;
#X obj 358 415 / 40;
#X connect 0 0 1 0;
#X connect 1 0 2 0;
#X connect 1 1 3 0;
#X connect 1 2 4 0;
#X connect 2 0 17 0;
#X connect 3 0 18 0;
#X connect 4 0 19 0;
#X connect 5 0 8 0;
#X connect 6 0 10 0;
#X connect 7 0 12 0;
#X connect 8 0 9 0;
#X connect 10 0 11 0;
#X connect 12 0 13 0;
#X connect 14 0 13 1;
#X connect 14 1 7 0;
#X connect 15 0 11 1;
#X connect 15 1 6 0;
#X connect 16 0 9 1;
#X connect 16 1 5 0;
#X connect 17 0 16 0;
#X connect 18 0 15 0;
#X connect 19 0 14 0;
#X restore 569 322 pd gravity;
#N canvas 796 201 904 741 linearacceleration 0;
#X obj 44 30 inlet;
#X obj 44 68 route X Y Z;
#X floatatom 44 159 5 0 0 0 - - -, f 5;
#X floatatom 84 139 5 0 0 0 - - -, f 5;
#X floatatom 108 110 5 0 0 0 - - -, f 5;
#X obj 46 593 gemhead;
#X obj 205 594 gemhead;
#X obj 357 596 gemhead;
#X obj 46 619 colorRGB 1 1 0;
#X obj 46 644 polygongraph;
#X obj 205 618 colorRGB 0 1 1;
#X obj 205 643 polygongraph;
#X obj 357 622 colorRGB 1 0 1;
#X obj 357 647 polygongraph;
#X obj 358 488 idle 1000;
#X obj 201 485 idle 1000;
#X obj 44 492 idle 1000;
#X obj 44 404 / 40;
#X obj 201 408 / 40;
#X obj 358 415 / 40;
#X connect 0 0 1 0;
#X connect 1 0 2 0;
#X connect 1 1 3 0;
#X connect 1 2 4 0;
#X connect 2 0 17 0;
#X connect 3 0 18 0;
#X connect 4 0 19 0;
#X connect 5 0 8 0;
#X connect 6 0 10 0;
#X connect 7 0 12 0;
#X connect 8 0 9 0;
#X connect 10 0 11 0;
#X connect 12 0 13 0;
#X connect 14 0 13 1;
#X connect 14 1 7 0;
#X connect 15 0 11 1;
#X connect 15 1 6 0;
#X connect 16 0 9 1;
#X connect 16 1 5 0;
#X connect 17 0 16 0;
#X connect 18 0 15 0;
#X connect 19 0 14 0;
#X restore 643 355 pd linearacceleration;
#X text 805 354 X \, Y \, Z;
#N canvas 971 243 904 741 rotationvector 0;
#X obj 44 30 inlet;
#X floatatom 44 159 5 0 0 0 - - -, f 5;
#X floatatom 84 139 5 0 0 0 - - -, f 5;
#X floatatom 108 110 5 0 0 0 - - -, f 5;
#X obj 46 593 gemhead;
#X obj 205 594 gemhead;
#X obj 357 596 gemhead;
#X obj 46 619 colorRGB 1 1 0;
#X obj 46 644 polygongraph;
#X obj 205 618 colorRGB 0 1 1;
#X obj 205 643 polygongraph;
#X obj 357 622 colorRGB 1 0 1;
#X obj 357 647 polygongraph;
#X obj 358 488 idle 1000;
#X obj 201 485 idle 1000;
#X obj 44 492 idle 1000;
#X obj 44 68 route X Y Z cos;
#X obj 482 596 gemhead;
#X obj 482 647 polygongraph;
#X obj 483 488 idle 1000;
#X floatatom 144 91 5 0 0 0 - - -, f 5;
#X obj 482 622 colorRGB 1 0 0.5;
#X connect 0 0 16 0;
#X connect 1 0 15 0;
#X connect 2 0 14 0;
#X connect 3 0 13 0;
#X connect 4 0 7 0;
#X connect 5 0 9 0;
#X connect 6 0 11 0;
#X connect 7 0 8 0;
#X connect 9 0 10 0;
#X connect 11 0 12 0;
#X connect 13 0 12 1;
#X connect 13 1 6 0;
#X connect 14 0 10 1;
#X connect 14 1 5 0;
#X connect 15 0 8 1;
#X connect 15 1 4 0;
#X connect 16 0 1 0;
#X connect 16 1 2 0;
#X connect 16 2 3 0;
#X connect 16 3 20 0;
#X connect 17 0 21 0;
#X connect 19 0 18 1;
#X connect 19 1 17 0;
#X connect 20 0 19 0;
#X connect 21 0 18 0;
#X restore 621 382 pd rotationvector;
#X text 761 384 X \, Y \, Z \, cos;
#X text 780 410 X \, Y \, Z \, cos;
#N canvas 971 243 904 741 georotationvector 0;
#X obj 44 30 inlet;
#X floatatom 44 159 5 0 0 0 - - -, f 5;
#X floatatom 84 139 5 0 0 0 - - -, f 5;
#X floatatom 108 110 5 0 0 0 - - -, f 5;
#X obj 46 593 gemhead;
#X obj 205 594 gemhead;
#X obj 357 596 gemhead;
#X obj 46 619 colorRGB 1 1 0;
#X obj 46 644 polygongraph;
#X obj 205 618 colorRGB 0 1 1;
#X obj 205 643 polygongraph;
#X obj 357 622 colorRGB 1 0 1;
#X obj 357 647 polygongraph;
#X obj 358 488 idle 1000;
#X obj 201 485 idle 1000;
#X obj 44 492 idle 1000;
#X obj 44 68 route X Y Z cos;
#X obj 482 596 gemhead;
#X obj 482 647 polygongraph;
#X obj 483 488 idle 1000;
#X floatatom 144 91 5 0 0 0 - - -, f 5;
#X obj 482 622 colorRGB 1 0 0.5;
#X connect 0 0 16 0;
#X connect 1 0 15 0;
#X connect 2 0 14 0;
#X connect 3 0 13 0;
#X connect 4 0 7 0;
#X connect 5 0 9 0;
#X connect 6 0 11 0;
#X connect 7 0 8 0;
#X connect 9 0 10 0;
#X connect 11 0 12 0;
#X connect 13 0 12 1;
#X connect 13 1 6 0;
#X connect 14 0 10 1;
#X connect 14 1 5 0;
#X connect 15 0 8 1;
#X connect 15 1 4 0;
#X connect 16 0 1 0;
#X connect 16 1 2 0;
#X connect 16 2 3 0;
#X connect 16 3 20 0;
#X connect 17 0 21 0;
#X connect 19 0 18 1;
#X connect 19 1 17 0;
#X connect 20 0 19 0;
#X connect 21 0 18 0;
#X restore 631 410 pd georotationvector;
#X text 709 443 X \, Y \, Z;
#N canvas 794 202 904 741 orientation 0;
#X obj 44 30 inlet;
#X obj 44 68 route X Y Z;
#X floatatom 44 159 5 0 0 0 - - -, f 5;
#X floatatom 84 139 5 0 0 0 - - -, f 5;
#X floatatom 108 110 5 0 0 0 - - -, f 5;
#X obj 46 593 gemhead;
#X obj 205 594 gemhead;
#X obj 357 596 gemhead;
#X obj 46 619 colorRGB 1 1 0;
#X obj 46 644 polygongraph;
#X obj 205 618 colorRGB 0 1 1;
#X obj 205 643 polygongraph;
#X obj 357 622 colorRGB 1 0 1;
#X obj 357 647 polygongraph;
#X obj 358 488 idle 1000;
#X obj 201 485 idle 1000;
#X obj 44 492 idle 1000;
#X obj 44 404 / 360;
#X obj 202 376 + 180;
#X obj 201 408 / 360;
#X obj 359 411 / 90;
#X obj 360 379 + 90;
#X obj 44 429 - 1;
#X connect 0 0 1 0;
#X connect 1 0 2 0;
#X connect 1 1 3 0;
#X connect 1 2 4 0;
#X connect 2 0 17 0;
#X connect 3 0 18 0;
#X connect 4 0 21 0;
#X connect 5 0 8 0;
#X connect 6 0 10 0;
#X connect 7 0 12 0;
#X connect 8 0 9 0;
#X connect 10 0 11 0;
#X connect 12 0 13 0;
#X connect 14 0 13 1;
#X connect 14 1 7 0;
#X connect 15 0 11 1;
#X connect 15 1 6 0;
#X connect 16 0 9 1;
#X connect 16 1 5 0;
#X connect 17 0 22 0;
#X connect 18 0 19 0;
#X connect 19 0 15 0;
#X connect 20 0 14 0;
#X connect 21 0 20 0;
#X connect 22 0 16 0;
#X restore 597 441 pd orientation;
#X obj 425 129 getSensor magneticfield;
#X obj 425 159 getSensor magneticfielduncalibrated;
#X obj 425 184 getSensor gyroscope;
#X obj 425 213 getSensor gyroscopeuncalibrated;
#X obj 425 241 getSensor proximity;
#X obj 425 270 getSensor light;
#X obj 425 296 getSensor pressure;
#X obj 425 322 getSensor gravity;
#X obj 425 354 getSensor linearacceleration;
#X obj 425 381 getSensor rotationvector;
#X obj 425 409 getSensor georotationvector;
#X obj 425 439 getSensor orientation;
#X obj 425 495 getSensor tiltdetector;
#X obj 425 548 getSensor stepcounter;
#X obj 425 596 getSensor stepcdetector;
#X obj 425 669 getSensor significantmotion;
#X obj 425 713 getSensor gamerotationvector;
#X connect 0 0 6 0;
#X connect 2 0 1 0;
#X connect 4 0 6 0;
#X connect 6 0 7 0;
#X connect 7 0 35 0;
#X connect 7 1 14 0;
#X connect 18 0 1 0;
#X connect 35 0 36 0;
#X connect 35 1 15 0;
#X connect 36 0 37 0;
#X connect 36 1 19 0;
#X connect 37 0 38 0;
#X connect 37 1 23 0;
#X connect 38 0 39 0;
#X connect 38 1 21 0;
#X connect 39 0 40 0;
#X connect 39 1 8 0;
#X connect 40 0 41 0;
#X connect 40 1 9 0;
#X connect 41 0 42 0;
#X connect 41 1 10 0;
#X connect 42 0 43 0;
#X connect 42 1 26 0;
#X connect 43 0 44 0;
#X connect 43 1 27 0;
#X connect 44 0 45 0;
#X connect 44 1 29 0;
#X connect 45 0 46 0;
#X connect 45 1 32 0;
#X connect 46 0 47 0;
#X connect 46 1 34 0;
#X connect 47 0 48 0;
#X connect 47 1 11 0;
#X connect 48 0 49 0;
#X connect 48 1 12 0;
#X connect 49 0 50 0;
#X connect 49 1 13 0;
#X connect 50 0 51 0;
