#N canvas 686 107 918 855 10;
#X declare -lib zexy;
#X obj 20 363 gemwin 60;
#X msg 32 86 0 \, destroy;
#X obj 388 509 teapot;
#X obj 388 426 rotateXYZ;
#X obj 408 399 line;
#X msg 408 377 0 \, 360 4000;
#X obj 408 309 loadbang;
#X obj 408 331 tgl 15 0 empty empty empty 17 7 0 10 -262144 -1 -1 1
1;
#X obj 408 353 metro 4000;
#X obj 256 650 time;
#X obj 477 28 declare -lib zexy;
#X obj 233 812 text3d;
#X obj 273 741 loadbang;
#X msg 246 787 justify left base;
#X obj 314 649 f;
#X obj 348 649 + 1;
#X obj 233 604 t a b b;
#X obj 247 688 pack f f f;
#X msg 247 715 text Frame \$3 Sec \$1:\$2;
#X msg 129 106 stereoSep \$1;
#X floatatom 129 84 5 0 0 0 - - -, f 5;
#X text 218 105 set the stereo-separation (default: -15);
#X msg 147 154 stereoFoc \$1;
#X text 242 153 set the stereo-focal;
#X floatatom 147 130 5 0 0 0 - - -, f 5;
#X obj 204 131 hsl 300 15 3.5 -30 0 0 empty empty empty -2 -8 0 10
-262144 -1 -1 2500 1;
#X msg 273 761 6;
#X obj 233 471 tgl 15 0 empty empty empty 17 7 0 10 -262144 -1 -1 0
1;
#N canvas 20 100 438 440 mousemove 0;
#X obj 28 7 gemmouse;
#X obj 35 87 pack;
#X obj 35 109 spigot;
#X obj 35 130 unpack;
#X obj 35 195 t f f;
#X msg 35 364 view \$2 \$3 \$1 0 0 0 0 1 0;
#X obj 35 172 +;
#X obj 35 220 * -1;
#X obj 100 236 t f f;
#X obj 100 173 +;
#X obj 100 261 * -1;
#X obj 35 387 s view_mess;
#N canvas 292 198 304 356 coordinates 0;
#X obj 89 52 inlet;
#X obj 94 331 outlet;
#X obj 193 62 atan;
#X msg 193 41 1;
#X obj 193 84 / 45;
#X obj 193 20 loadbang;
#X text 94 29 r phi theta;
#X obj 89 78 unpack 0 0 0;
#X obj 128 123 *;
#X obj 168 123 *;
#X obj 120 197 cos;
#X obj 150 198 sin;
#X obj 120 166 t f f;
#X obj 183 198 cos;
#X obj 213 199 sin;
#X obj 183 167 t f f;
#X obj 120 230 *;
#X obj 150 231 *;
#X obj 85 275 *;
#X obj 125 275 *;
#X obj 174 277 *;
#X obj 66 242 t f f f;
#X obj 91 308 pack 0 0 0;
#X connect 0 0 7 0;
#X connect 2 0 4 0;
#X connect 3 0 2 0;
#X connect 4 0 9 1;
#X connect 4 0 8 1;
#X connect 5 0 3 0;
#X connect 7 0 21 0;
#X connect 7 1 8 0;
#X connect 7 2 9 0;
#X connect 8 0 12 0;
#X connect 9 0 15 0;
#X connect 10 0 16 0;
#X connect 11 0 17 0;
#X connect 12 0 10 0;
#X connect 12 1 11 0;
#X connect 13 0 16 1;
#X connect 13 0 17 1;
#X connect 14 0 20 1;
#X connect 15 0 13 0;
#X connect 15 1 14 0;
#X connect 16 0 18 1;
#X connect 17 0 19 1;
#X connect 18 0 22 0;
#X connect 19 0 22 1;
#X connect 20 0 22 2;
#X connect 21 0 18 0;
#X connect 21 1 19 0;
#X connect 21 2 20 0;
#X connect 22 0 1 0;
#X restore 35 309 pd coordinates;
#X obj 35 248 t b f;
#X obj 35 288 pack 4 0 0;
#X obj 76 45 t f f;
#X obj 76 66 -;
#X obj 35 44 t f f;
#X obj 35 65 -;
#X obj 100 150 * 0.5;
#X obj 35 152 * 0.5;
#X obj 100 208 clip -90 90;
#X connect 0 0 17 0;
#X connect 0 1 15 0;
#X connect 0 2 2 1;
#X connect 1 0 2 0;
#X connect 2 0 3 0;
#X connect 3 0 20 0;
#X connect 3 1 19 0;
#X connect 4 0 7 0;
#X connect 4 1 6 1;
#X connect 5 0 11 0;
#X connect 6 0 4 0;
#X connect 7 0 13 0;
#X connect 8 0 10 0;
#X connect 8 1 9 1;
#X connect 9 0 21 0;
#X connect 10 0 14 2;
#X connect 12 0 5 0;
#X connect 13 0 14 0;
#X connect 13 1 14 1;
#X connect 14 0 12 0;
#X connect 15 0 16 1;
#X connect 15 1 16 0;
#X connect 16 0 1 1;
#X connect 17 0 18 1;
#X connect 17 1 18 0;
#X connect 18 0 1 0;
#X connect 19 0 9 0;
#X connect 20 0 6 0;
#X connect 21 0 8 0;
#X restore 33 720 pd mousemove;
#X obj 33 674 cartesianspace;
#X obj 44 128 r view_mess;
#X obj 33 653 translateXYZ 1 0 0;
#X obj 233 504 gemhead -20;
#X obj 388 231 gemhead 70;
#X obj 33 633 gemhead 60;
#X obj 388 270 translateXYZ 0 0 -1.5;
#N canvas 593 279 330 94 scene_lighting 0;
#X obj 8 52 world_light;
#X obj 136 31 rotateXYZ 260 -90 -260;
#X obj 136 53 light;
#X obj 136 9 gemhead 80;
#X obj 8 9 gemhead 90;
#X obj 8 31 rotateXYZ -30 0 0;
#X connect 1 0 2 0;
#X connect 3 0 1 0;
#X connect 4 0 5 0;
#X connect 5 0 0 0;
#X restore 33 700 pd scene_lighting;
#X msg 169 202 0 \, destroy;
#N canvas 107 50 450 300 esc 0;
#X obj 65 20 gemkeyboard;
#X obj 65 167 outlet;
#X obj 89 71 keyname;
#X obj 128 96 sel Escape;
#X obj 65 41 sel 53;
#X obj 189 47 sel Escape;
#X obj 150 22 gemkeyname;
#X connect 0 0 4 0;
#X connect 2 1 3 0;
#X connect 3 0 1 0;
#X connect 4 0 1 0;
#X connect 5 0 1 0;
#X connect 6 1 5 0;
#X restore 169 180 pd esc;
#X text 224 180 press ESC to quit;
#X msg 152 283 reset;
#X msg 172 234 offset 3600 0;
#X obj 233 533 rotateXYZ 0 0 180;
#X msg 154 307 view 0 0 4 0 0 0 0 -45 0;
#N canvas 97 209 843 647 more 0;
#X text 43 11 messages to [gemwin] regarding the view-point ("camera")
;
#X text 312 389 perspec <left> <right> <bottom> <top> <front> <back>::
;
#X text 311 407 set the clipping planes of the view-point. this might
be what you need \, if all the objects that re further away than 20
units suddenly disappear;
#X text 311 449 default: -1 1 -1 1 1 20;
#X text 208 51 view <x> <y> <z>::;
#X text 208 70 translate the camera / set the viewpoint:: the viewing-direction
will not be changed.;
#X text 80 119 default: 0 0 4;
#X text 208 98 the viewing direction defaults to "0 0 1" \, with y-axis
as "up";
#X text 303 167 view <x> <y> <z> <azimuth>::;
#X text 303 184 view <x> <y> <z> <azimuth> <elevation>::;
#X text 303 201 translate/rotate camera/viewpoint \; the "up" direction
will still be the y-axis;
#X text 389 284 view <view_x> <view_y> <view_z> <target_x> <target_y>
<target_z> <up_x> <up_y> <up_z>::;
#X text 389 314 set viewpoint (view_X view_Y view_Z). the camera will
look at the target-point (target_X \, target_Y \, target_Z). "up" is
defined via the vector (up_X \, up_Y \, up_Z);
#X text 301 251 default: 0 0 4 0 0;
#X text 389 355 default: 0 0 4 0 0 0 0 1 0;
#X msg 25 101 view \$1 \$2 \$3;
#X msg 42 190 view \$1 \$2 \$3 \$4;
#X msg 49 250 view \$1 \$2 \$3 \$4 \$5;
#X msg 52 330 view \$1 \$2 \$3 \$4 \$5 \$6 \$7 \$8 \$9;
#X msg 101 452 perspec \$1 \$2 \$3 \$4 \$5 \$6;
#X text 310 467 if you want to remove perspective \, see [ortho];
#X msg 66 563 view 0 0 20 \, perspec -1 1 -1 1 4 50;
#N canvas 1299 508 544 500 perspec 0;
#X obj 90 428 outlet;
#X obj 268 273 t f f;
#X obj 268 298 * -1;
#X obj 90 268 t f f;
#X obj 90 293 * -1;
#X obj 90 367 pack -1 1 -1 1 1 20;
#X msg 90 389 set perspec \$1 \$2 \$3 \$4 \$5 \$6 \, bang;
#X msg 172 453 set perspec \, adddollar 1 \, adddollar 2 \, adddollar
3 \, adddollar 4 \, adddollar 5 \, adddollar 6;
#X floatatom 103 117 5 0.1 5 1 x_wideness - -, f 5;
#X floatatom 103 134 5 0.1 5 1 y_wideness - -, f 5;
#X floatatom 103 151 5 0 0 1 z_depth - -, f 5;
#X obj 360 196 select 1;
#X obj 405 219 t b f f;
#X obj 249 226 t b f f;
#X obj 204 203 select 0;
#X obj 360 218 f 20;
#X obj 204 224 f 1;
#X msg 204 246 set \$1;
#X msg 360 240 set \$1;
#X obj 134 216 t b f f;
#X obj 89 193 select 0;
#X obj 89 214 f 1;
#X msg 89 236 set \$1;
#X obj 328 97 loadbang;
#X obj 328 119 t b b;
#X obj 328 141 t b b b;
#X connect 1 0 2 0;
#X connect 1 1 5 3;
#X connect 2 0 5 2;
#X connect 3 0 4 0;
#X connect 3 1 5 1;
#X connect 4 0 5 0;
#X connect 5 0 6 0;
#X connect 6 0 0 0;
#X connect 7 0 0 0;
#X connect 8 0 20 0;
#X connect 9 0 14 0;
#X connect 10 0 11 0;
#X connect 11 0 15 0;
#X connect 11 1 12 0;
#X connect 12 0 5 0;
#X connect 12 1 5 5;
#X connect 12 2 15 1;
#X connect 13 0 5 0;
#X connect 13 1 1 0;
#X connect 13 2 16 1;
#X connect 14 0 16 0;
#X connect 14 1 13 0;
#X connect 15 0 18 0;
#X connect 16 0 17 0;
#X connect 17 0 9 0;
#X connect 18 0 10 0;
#X connect 19 1 3 0;
#X connect 19 2 21 1;
#X connect 20 0 21 0;
#X connect 20 1 19 0;
#X connect 21 0 22 0;
#X connect 22 0 8 0;
#X connect 23 0 24 0;
#X connect 24 0 25 0;
#X connect 24 1 7 0;
#X connect 25 0 21 0;
#X connect 25 1 16 0;
#X connect 25 2 15 0;
#X coords 0 -1 1 1 100 67 1 100 100;
#X restore 101 380 pd perspec;
#X text 292 554 the default camera has a very wide angle. this message
allows to narrow it.;
#N canvas 506 305 612 484 view 0;
#X floatatom 112 114 5 0 0 0 x - -, f 5;
#X floatatom 158 114 5 0 0 0 y - -, f 5;
#X floatatom 201 114 5 0 0 0 z - -, f 5;
#X floatatom 236 114 5 0 0 2 azimuth - -, f 5;
#X obj 369 109 loadbang;
#X obj 140 335 outlet;
#X obj 201 226 t b f;
#X obj 150 227 t b f;
#X obj 369 131 t b b;
#X msg 213 342 set view \, adddollar 1 \, adddollar 2 \, adddollar
3 \, adddollar 4;
#X obj 140 274 pack 0 0 4 0;
#X obj 251 226 t b f;
#X msg 398 196 set 4;
#X msg 140 296 set view \$1 \$2 \$3 \$4 \, bang;
#X connect 0 0 10 0;
#X connect 1 0 7 0;
#X connect 2 0 6 0;
#X connect 3 0 11 0;
#X connect 4 0 8 0;
#X connect 6 0 10 0;
#X connect 6 1 10 2;
#X connect 7 0 10 0;
#X connect 7 1 10 1;
#X connect 8 0 12 0;
#X connect 8 1 9 0;
#X connect 9 0 5 0;
#X connect 10 0 13 0;
#X connect 11 0 10 0;
#X connect 11 1 10 3;
#X connect 12 0 2 0;
#X connect 13 0 5 0;
#X coords 0 -1 1 1 180 30 1 100 100;
#X restore 42 156 pd view;
#N canvas 508 299 612 484 view 0;
#X floatatom 112 114 5 0 0 0 x - -, f 5;
#X floatatom 158 114 5 0 0 0 y - -, f 5;
#X floatatom 201 114 5 0 0 0 z - -, f 5;
#X floatatom 236 114 5 0 0 2 azimuth - -, f 5;
#X obj 369 109 loadbang;
#X obj 140 335 outlet;
#X obj 201 226 t b f;
#X obj 150 227 t b f;
#X obj 369 131 t b b;
#X obj 251 226 t b f;
#X msg 398 196 set 4;
#X msg 140 296 set view \$1 \$2 \$3 \$4 \$5 \, bang;
#X obj 140 274 pack 0 0 4 0 0;
#X floatatom 286 114 5 0 0 2 elevate - -, f 5;
#X obj 291 226 t b f;
#X msg 213 342 set view \, adddollar 1 \, adddollar 2 \, adddollar
3 \, adddollar 4 \, adddollar 5;
#X connect 0 0 12 0;
#X connect 1 0 7 0;
#X connect 2 0 6 0;
#X connect 3 0 9 0;
#X connect 4 0 8 0;
#X connect 6 0 12 0;
#X connect 6 1 12 2;
#X connect 7 0 12 0;
#X connect 7 1 12 1;
#X connect 8 0 10 0;
#X connect 8 1 15 0;
#X connect 9 0 12 0;
#X connect 9 1 12 3;
#X connect 10 0 2 0;
#X connect 11 0 5 0;
#X connect 12 0 11 0;
#X connect 13 0 14 0;
#X connect 14 0 12 0;
#X connect 14 1 12 4;
#X connect 15 0 5 0;
#X coords 0 -1 1 1 230 30 1 100 100;
#X restore 49 216 pd view;
#N canvas 509 296 612 484 view 0;
#X floatatom 112 114 5 0 0 0 x - -, f 5;
#X floatatom 158 114 5 0 0 0 y - -, f 5;
#X floatatom 201 114 5 0 0 0 z - -, f 5;
#X obj 369 109 loadbang;
#X obj 140 335 outlet;
#X obj 201 226 t b f;
#X obj 150 227 t b f;
#X obj 369 131 t b b;
#X msg 398 196 set 4;
#X obj 140 274 pack 0 0 4;
#X msg 140 296 set view \$1 \$2 \$3 \, bang;
#X msg 213 342 set view \, adddollar 1 \, adddollar 2 \, adddollar
3;
#X connect 0 0 9 0;
#X connect 1 0 6 0;
#X connect 2 0 5 0;
#X connect 3 0 7 0;
#X connect 5 0 9 0;
#X connect 5 1 9 2;
#X connect 6 0 9 0;
#X connect 6 1 9 1;
#X connect 7 0 8 0;
#X connect 7 1 11 0;
#X connect 8 0 2 0;
#X connect 9 0 10 0;
#X connect 10 0 4 0;
#X connect 11 0 4 0;
#X coords 0 -1 1 1 140 30 1 100 100;
#X restore 25 65 pd view;
#N canvas 380 50 612 484 view 0;
#X floatatom 214 114 5 0 0 2 X - -, f 5;
#X obj 166 22 loadbang;
#X obj 139 335 outlet;
#X obj 174 177 t b f;
#X obj 139 177 t b f;
#X obj 214 177 t b f;
#X msg 174 79 set 4;
#X floatatom 249 114 5 0 0 2 Y - -, f 5;
#X obj 249 177 t b f;
#X obj 139 274 pack 0 0 4 0 0 0 0 1 0;
#X floatatom 284 114 5 0 0 2 Z - -, f 5;
#X floatatom 104 114 5 0 0 2 x - -, f 5;
#X floatatom 139 114 5 0 0 2 y - -, f 5;
#X floatatom 174 114 5 0 0 2 z - -, f 5;
#X floatatom 324 114 5 0 0 2 upX - -, f 5;
#X floatatom 359 114 5 0 0 2 upY - -, f 5;
#X floatatom 394 114 5 0 0 2 upZ - -, f 5;
#X obj 284 177 t b f;
#X obj 324 177 t b f;
#X obj 359 177 t b f;
#X obj 394 177 t b f;
#X obj 324 199 t b;
#X obj 214 199 t b;
#X msg 139 296 set view \$1 \$2 \$3 \$4 \$5 \$6 \$7 \$8 \$9 \, bang
;
#X msg 251 22 set view \, adddollar 1 \, adddollar 2 \, adddollar 3
\, adddollar 4 \, adddollar 5 \, adddollar 6 \, adddollar 7 \, adddollar
8 \, adddollar 9;
#X obj 166 44 t b b b;
#X msg 359 79 set 1;
#X connect 0 0 5 0;
#X connect 1 0 25 0;
#X connect 3 0 9 0;
#X connect 3 1 9 2;
#X connect 4 0 9 0;
#X connect 4 1 9 1;
#X connect 5 0 22 0;
#X connect 5 1 9 3;
#X connect 6 0 13 0;
#X connect 7 0 8 0;
#X connect 8 0 22 0;
#X connect 8 1 9 4;
#X connect 9 0 23 0;
#X connect 10 0 17 0;
#X connect 11 0 9 0;
#X connect 12 0 4 0;
#X connect 13 0 3 0;
#X connect 14 0 18 0;
#X connect 15 0 19 0;
#X connect 16 0 20 0;
#X connect 17 0 22 0;
#X connect 17 1 9 5;
#X connect 18 0 21 0;
#X connect 18 1 9 6;
#X connect 19 0 21 0;
#X connect 19 1 9 7;
#X connect 20 0 21 0;
#X connect 20 1 9 8;
#X connect 21 0 22 0;
#X connect 22 0 9 0;
#X connect 23 0 2 0;
#X connect 24 0 2 0;
#X connect 25 0 6 0;
#X connect 25 1 26 0;
#X connect 25 2 24 0;
#X connect 26 0 15 0;
#X coords 0 -1 1 1 330 30 2 100 100;
#X restore 52 296 pd view;
#X text 309 229 azimuth and elevation are in degree [°];
#X obj 25 588 outlet;
#X connect 15 0 29 0;
#X connect 16 0 29 0;
#X connect 17 0 29 0;
#X connect 18 0 29 0;
#X connect 19 0 29 0;
#X connect 21 0 29 0;
#X connect 22 0 19 0;
#X connect 24 0 16 0;
#X connect 25 0 17 0;
#X connect 26 0 15 0;
#X connect 27 0 18 0;
#X restore 148 331 pd more viewing;
#X obj 234 564 translateXYZ -3.3 -2.8 0;
#X msg 172 255 offset 1290 0;
#X msg 25 15 border 0 \, dimen 2160 1200 \, stereo 1 \, stereoLine
0 \, lighting 1 \, create \, 1;
#X text 274 236 dual monitor;
#X text 274 254 laptop only;
#X obj 274 53 loadbang;
#X msg 208 67 39;
#X msg 272 77 0.698;
#X connect 1 0 0 0;
#X connect 3 0 2 0;
#X connect 4 0 3 1;
#X connect 4 0 3 2;
#X connect 5 0 4 0;
#X connect 6 0 7 0;
#X connect 7 0 8 0;
#X connect 8 0 5 0;
#X connect 9 2 17 0;
#X connect 9 3 17 1;
#X connect 12 0 26 0;
#X connect 12 0 13 0;
#X connect 13 0 11 0;
#X connect 14 0 15 0;
#X connect 14 0 17 2;
#X connect 15 0 14 1;
#X connect 16 0 11 0;
#X connect 16 1 9 0;
#X connect 16 2 14 0;
#X connect 17 0 18 0;
#X connect 18 0 11 0;
#X connect 19 0 0 0;
#X connect 20 0 19 0;
#X connect 22 0 0 0;
#X connect 24 0 22 0;
#X connect 25 0 24 0;
#X connect 26 0 11 1;
#X connect 27 0 32 0;
#X connect 30 0 0 0;
#X connect 31 0 29 0;
#X connect 32 0 42 0;
#X connect 33 0 35 0;
#X connect 34 0 31 0;
#X connect 35 0 3 0;
#X connect 37 0 0 0;
#X connect 38 0 37 0;
#X connect 40 0 0 0;
#X connect 41 0 0 0;
#X connect 42 0 45 0;
#X connect 43 0 0 0;
#X connect 44 0 0 0;
#X connect 45 0 16 0;
#X connect 46 0 0 0;
#X connect 47 0 0 0;
#X connect 50 0 51 0;
#X connect 50 0 52 0;
#X connect 51 0 20 0;
#X connect 52 0 25 0;
