#N canvas 963 130 918 855 10;
#X declare -lib zexy;
#X obj 29 222 gemwin 60;
#X msg 45 48 0 \, destroy;
#X obj 388 509 teapot;
#X obj 388 426 rotateXYZ;
#X obj 408 399 line;
#X msg 408 377 0 \, 360 4000;
#X obj 408 309 loadbang;
#X obj 408 331 tgl 15 0 empty empty empty 17 7 0 10 -262144 -1 -1 1
1;
#X obj 408 353 metro 4000;
#X obj 215 427 time;
#X obj 477 28 declare -lib zexy;
#X obj 192 589 text3d;
#X obj 232 518 loadbang;
#X msg 205 564 justify left base;
#X obj 273 426 f;
#X obj 307 426 + 1;
#X obj 192 381 t a b b;
#X obj 206 465 pack f f f;
#X msg 206 492 text Frame \$3 Sec \$1:\$2;
#X msg 134 73 stereoSep \$1;
#X floatatom 134 51 5 0 0 0 - - -, f 5;
#X text 223 72 set the stereo-separation (default: -15);
#X msg 152 121 stereoFoc \$1;
#X text 245 122 set the stereo-focal;
#X floatatom 152 97 5 0 0 0 - - -, f 5;
#X obj 166 146 tgl 15 0 empty empty empty 17 7 0 10 -262144 -1 -1 0
1;
#X text 269 156 turn the seperation-line between the 2 screens in stereo-mode
1 on/off;
#X msg 166 165 stereoLine \$1;
#X obj 209 98 hsl 128 15 3.5 -30 0 0 empty empty empty -2 -8 0 10 -262144
-1 -1 0 1;
#X msg 232 538 6;
#X obj 192 248 tgl 15 0 empty empty empty 17 7 0 10 -262144 -1 -1 1
1;
#X obj 192 342 translateXYZ -3.3 -2.8 0;
#N canvas 20 100 438 440 mousemove 0;
#X obj 28 7 gemmouse;
#X obj 35 87 pack;
#X obj 35 109 spigot;
#X obj 35 130 unpack;
#X obj 35 195 t f f;
#X msg 35 364 view \$2 \$3 \$1 0 0 0 0 1 0;
#X obj 35 172 +;
#X obj 35 220 * -1;
#X obj 100 236 t f f;
#X obj 100 173 +;
#X obj 100 261 * -1;
#X obj 35 387 s view_mess;
#N canvas 292 198 304 356 coordinates 0;
#X obj 89 52 inlet;
#X obj 94 331 outlet;
#X obj 193 62 atan;
#X msg 193 41 1;
#X obj 193 84 / 45;
#X obj 193 20 loadbang;
#X text 94 29 r phi theta;
#X obj 89 78 unpack 0 0 0;
#X obj 128 123 *;
#X obj 168 123 *;
#X obj 120 197 cos;
#X obj 150 198 sin;
#X obj 120 166 t f f;
#X obj 183 198 cos;
#X obj 213 199 sin;
#X obj 183 167 t f f;
#X obj 120 230 *;
#X obj 150 231 *;
#X obj 85 275 *;
#X obj 125 275 *;
#X obj 174 277 *;
#X obj 66 242 t f f f;
#X obj 91 308 pack 0 0 0;
#X connect 0 0 7 0;
#X connect 2 0 4 0;
#X connect 3 0 2 0;
#X connect 4 0 9 1;
#X connect 4 0 8 1;
#X connect 5 0 3 0;
#X connect 7 0 21 0;
#X connect 7 1 8 0;
#X connect 7 2 9 0;
#X connect 8 0 12 0;
#X connect 9 0 15 0;
#X connect 10 0 16 0;
#X connect 11 0 17 0;
#X connect 12 0 10 0;
#X connect 12 1 11 0;
#X connect 13 0 16 1;
#X connect 13 0 17 1;
#X connect 14 0 20 1;
#X connect 15 0 13 0;
#X connect 15 1 14 0;
#X connect 16 0 18 1;
#X connect 17 0 19 1;
#X connect 18 0 22 0;
#X connect 19 0 22 1;
#X connect 20 0 22 2;
#X connect 21 0 18 0;
#X connect 21 1 19 0;
#X connect 21 2 20 0;
#X connect 22 0 1 0;
#X restore 35 309 pd coordinates;
#X obj 35 248 t b f;
#X obj 35 288 pack 4 0 0;
#X obj 76 45 t f f;
#X obj 76 66 -;
#X obj 35 44 t f f;
#X obj 35 65 -;
#X obj 100 150 * 0.5;
#X obj 35 152 * 0.5;
#X obj 100 208 clip -90 90;
#X connect 0 0 17 0;
#X connect 0 1 15 0;
#X connect 0 2 2 1;
#X connect 1 0 2 0;
#X connect 2 0 3 0;
#X connect 3 0 20 0;
#X connect 3 1 19 0;
#X connect 4 0 7 0;
#X connect 4 1 6 1;
#X connect 5 0 11 0;
#X connect 6 0 4 0;
#X connect 7 0 13 0;
#X connect 8 0 10 0;
#X connect 8 1 9 1;
#X connect 9 0 21 0;
#X connect 10 0 14 2;
#X connect 12 0 5 0;
#X connect 13 0 14 0;
#X connect 13 1 14 1;
#X connect 14 0 12 0;
#X connect 15 0 16 1;
#X connect 15 1 16 0;
#X connect 16 0 1 1;
#X connect 17 0 18 1;
#X connect 17 1 18 0;
#X connect 18 0 1 0;
#X connect 19 0 9 0;
#X connect 20 0 6 0;
#X connect 21 0 8 0;
#X restore 21 345 pd mousemove;
#X obj 21 299 cartesianspace;
#X obj 49 95 r view_mess;
#X obj 21 278 translateXYZ 1 0 0;
#X obj 192 281 gemhead -20;
#X obj 388 231 gemhead 70;
#X obj 21 258 gemhead 60;
#X obj 388 270 translateXYZ 0 0 -1.5;
#X text 476 451 TODO: -distorsion -viewport via OSC sensor;
#X obj 724 141 print;
#X obj 724 95 oscparse;
#X obj 724 65 netreceive -u -b;
#X obj 724 117 list trim;
#X msg 11 5 dimen 960 540;
#X msg 29 24 title GemVR \, stereo 1 \, lighting 1 \, create \, 1;
#X msg 115 3 dimen 1920 1080;
#N canvas 593 279 330 94 scene_lighting 0;
#X obj 8 52 world_light;
#X obj 136 31 rotateXYZ 260 -90 -260;
#X obj 136 53 light;
#X obj 136 9 gemhead 80;
#X obj 8 9 gemhead 90;
#X obj 8 31 rotateXYZ -30 0 0;
#X connect 1 0 2 0;
#X connect 3 0 1 0;
#X connect 4 0 5 0;
#X connect 5 0 0 0;
#X restore 21 325 pd scene_lighting;
#X msg 724 31 listen 9000;
#X connect 1 0 0 0;
#X connect 3 0 2 0;
#X connect 4 0 3 1;
#X connect 4 0 3 2;
#X connect 5 0 4 0;
#X connect 6 0 7 0;
#X connect 7 0 8 0;
#X connect 8 0 5 0;
#X connect 9 2 17 0;
#X connect 9 3 17 1;
#X connect 12 0 29 0;
#X connect 12 0 13 0;
#X connect 13 0 11 0;
#X connect 14 0 15 0;
#X connect 14 0 17 2;
#X connect 15 0 14 1;
#X connect 16 0 11 0;
#X connect 16 1 9 0;
#X connect 16 2 14 0;
#X connect 17 0 18 0;
#X connect 18 0 11 0;
#X connect 19 0 0 0;
#X connect 20 0 19 0;
#X connect 22 0 0 0;
#X connect 24 0 22 0;
#X connect 25 0 27 0;
#X connect 27 0 0 0;
#X connect 28 0 24 0;
#X connect 29 0 11 1;
#X connect 30 0 36 0;
#X connect 31 0 16 0;
#X connect 34 0 0 0;
#X connect 35 0 33 0;
#X connect 36 0 31 0;
#X connect 37 0 39 0;
#X connect 38 0 35 0;
#X connect 39 0 3 0;
#X connect 42 0 44 0;
#X connect 43 0 42 0;
#X connect 44 0 41 0;
#X connect 45 0 0 0;
#X connect 46 0 0 0;
#X connect 47 0 0 0;
#X connect 49 0 43 0;
