#N canvas 934 96 1055 756 10;
#X msg 256 74 listen 9000;
#X obj 34 92 gemwin 60;
#X msg 55 54 0 \, destroy;
#N canvas 1234 807 509 206 scene_lighting 0;
#X obj 11 116 world_light;
#X obj 10 10 gemhead 90;
#X obj 10 32 rotateXYZ -30 0 0;
#X obj 82 61 loadbang;
#X msg 81 84 0.55 0.4 0.4 0.1;
#X connect 1 0 2 0;
#X connect 2 0 0 0;
#X connect 3 0 4 0;
#X connect 4 0 0 1;
#X restore 33 183 pd scene_lighting;
#X obj 34 261 gemhead;
#X obj 256 231 route X Y Z;
#X floatatom 256 371 5 0 0 0 - - -, f 5;
#X floatatom 280 323 5 0 0 0 - - -, f 5;
#X floatatom 306 273 5 0 0 0 - - -, f 5;
#X msg 268 94 listen 0;
#X floatatom 54 384 5 0 0 0 - - -, f 5;
#X floatatom 94 427 5 0 0 0 - - -, f 5;
#X floatatom 74 409 5 0 0 0 - - -, f 5;
#N canvas 245 725 223 198 OSCreceive 0;
#X obj 32 81 oscparse;
#X obj 32 51 netreceive -u -b;
#X obj 32 104 list trim;
#X obj 32 27 inlet;
#X obj 32 127 outlet;
#X connect 0 0 2 0;
#X connect 1 0 0 0;
#X connect 2 0 4 0;
#X connect 3 0 1 0;
#X restore 256 135 pd OSCreceive;
#X obj 34 450 rotateXYZ;
#X obj 280 340 * -1;
#X obj 34 327 rotateXYZ 270 0 0;
#X obj 303 292 * -1;
#X obj 257 393 * -1;
#X obj 7 25 cnv 15 20 20 empty empty 1 6 10 0 14 -222038 -262144 0
;
#X obj 232 71 cnv 15 20 20 empty empty 2 6 10 0 14 -222038 -262144
0;
#X obj 7 25 cnv 15 20 20 empty empty 1 6 10 0 14 -222038 -262144 0
;
#X obj 467 79 cnv 15 20 20 empty empty 3 6 10 0 14 -222038 -262144
0;
#X text 497 80 Launch Sensors2OSD on Android phone. Activate sending
on port 9000 to IP of computer Activate sending of orientation Change
orientation of phone and observe GEM window;
#X msg 34 21 reset \, dimen 800 800 \, title Torch \, lighting 1 \,
create \, 1;
#N canvas 2038 510 718 432 background 1;
#X obj 87 34 gemhead;
#X obj 91 295 square 3;
#X obj 87 114 separator;
#X obj 250 114 separator;
#X obj 250 161 rotateXYZ 0 90 0;
#X obj 408 115 separator;
#X obj 408 162 rotateXYZ 90 0 0;
#X obj 255 288 square 3;
#X obj 410 294 square 3;
#X obj 87 138 translateXYZ 0 1.5 -5;
#X obj 251 137 translateXYZ 3 1.5 -2;
#X obj 408 138 translateXYZ 0 -1.5 -2;
#X floatatom 367 24 5 0 0 0 - - -, f 5;
#X floatatom 329 22 5 0 0 0 - - -, f 5;
#X floatatom 286 20 5 0 0 0 - - -, f 5;
#X obj 253 53 rotateXYZ 5 24 0;
#X connect 0 0 15 0;
#X connect 2 0 9 0;
#X connect 3 0 10 0;
#X connect 4 0 7 0;
#X connect 5 0 11 0;
#X connect 6 0 8 0;
#X connect 9 0 1 0;
#X connect 10 0 4 0;
#X connect 11 0 6 0;
#X connect 12 0 15 3;
#X connect 13 0 15 2;
#X connect 14 0 15 1;
#X connect 15 0 2 0;
#X connect 15 0 3 0;
#X connect 15 0 5 0;
#X restore 32 227 pd background;
#N canvas 1199 504 585 445 phonebrick 0;
#X obj 73 242 pix_texture;
#X obj 73 192 alpha;
#X obj 73 263 rectangle 0.45 1;
#X obj 73 220 pix_image xperia-z3plus.png;
#X obj 71 3 inlet;
#X obj 73 133 cuboid 0.45 1 0.03;
#X obj 73 165 translateXYZ 0 0 0.031;
#X obj 313 343 outlet;
#X obj 311 38 separator;
#X obj 70 35 separator;
#X obj 73 104 colorRGB 0.1 0.1 0.1;
#X obj 79 64 pix_separator;
#X obj 320 67 pix_separator;
#X obj 311 128 colorRGB 1 1 1;
#X obj 311 302 circle 0.08;
#X obj 309 231 translateXYZ -0.29 -0.68 -0.031;
#X connect 0 0 2 0;
#X connect 1 0 3 0;
#X connect 3 0 0 0;
#X connect 4 0 9 0;
#X connect 4 0 8 0;
#X connect 5 0 6 0;
#X connect 6 0 1 0;
#X connect 8 0 12 0;
#X connect 9 0 11 0;
#X connect 10 0 5 0;
#X connect 11 0 10 0;
#X connect 12 0 13 0;
#X connect 13 0 15 0;
#X connect 14 0 7 0;
#X connect 15 0 14 0;
#X restore 34 529 pd phonebrick;
#X obj 476 271 gemhead;
#X obj 476 435 teapot;
#X obj 476 295 translateXYZ 0 -0.65 -2.16;
#X obj 34 292 translateXYZ 0.6 -1.5 1;
#X obj 256 202 route orientation;
#X floatatom 215 573 5 0 0 1 linear_attenuation - -, f 5;
#X floatatom 229 610 5 0 0 2 cone_cutoff_angle - -, f 5;
#X floatatom 283 636 5 0 0 2 decay_at_edges - -, f 5;
#X obj 272 660 t b f;
#X obj 229 659 t b f;
#X obj 67 579 loadbang;
#X obj 476 412 rotateXYZ 5 -186 0;
#X obj 558 317 tgl 15 0 empty empty empty 17 7 0 10 -262144 -1 -1 1
1;
#X obj 558 337 metro 3000;
#X obj 558 387 line;
#X msg 558 361 -186 \, 186 3000;
#X obj 34 720 spot_light;
#X msg 50 642 0.8 0.8 1;
#X msg 127 642 -50 37 -28;
#X obj 215 694 pack f f f;
#X connect 0 0 13 0;
#X connect 2 0 1 0;
#X connect 4 0 30 0;
#X connect 5 0 6 0;
#X connect 5 1 7 0;
#X connect 5 2 8 0;
#X connect 6 0 18 0;
#X connect 7 0 15 0;
#X connect 8 0 17 0;
#X connect 9 0 13 0;
#X connect 10 0 14 1;
#X connect 11 0 14 3;
#X connect 12 0 14 2;
#X connect 13 0 31 0;
#X connect 14 0 26 0;
#X connect 15 0 10 0;
#X connect 16 0 14 0;
#X connect 17 0 12 0;
#X connect 24 0 1 0;
#X connect 26 0 43 0;
#X connect 27 0 29 0;
#X connect 29 0 38 0;
#X connect 30 0 16 0;
#X connect 31 0 5 0;
#X connect 32 0 46 0;
#X connect 33 0 36 0;
#X connect 34 0 35 0;
#X connect 35 0 46 0;
#X connect 35 1 46 2;
#X connect 36 0 46 0;
#X connect 36 1 46 1;
#X connect 37 0 44 0;
#X connect 37 0 45 0;
#X connect 38 0 28 0;
#X connect 39 0 40 0;
#X connect 40 0 42 0;
#X connect 41 0 38 2;
#X connect 42 0 41 0;
#X connect 44 0 43 1;
#X connect 45 0 43 2;
#X connect 46 0 43 2;
