#N canvas 955 173 964 762 10;
#X msg 256 74 listen 9000;
#X obj 33 129 gemwin 60;
#X msg 55 54 0 \, destroy;
#N canvas 1228 810 509 206 scene_lighting 0;
#X obj 10 112 world_light;
#X obj 10 32 rotateXYZ -30 0 0;
#X obj 82 61 loadbang;
#X msg 81 84 0.55 0.4 0.4 0.3;
#X obj 10 10 gemhead 1;
#X connect 1 0 0 0;
#X connect 2 0 3 0;
#X connect 3 0 0 1;
#X connect 4 0 1 0;
#X restore 33 183 pd scene_lighting;
#X obj 256 231 route X Y Z;
#X floatatom 256 371 5 0 0 0 - - -, f 5;
#X floatatom 280 323 5 0 0 0 - - -, f 5;
#X floatatom 306 273 5 0 0 0 - - -, f 5;
#X msg 268 94 listen 0;
#X floatatom 54 384 5 0 0 0 - - -, f 5;
#X floatatom 94 427 5 0 0 0 - - -, f 5;
#X floatatom 74 409 5 0 0 0 - - -, f 5;
#N canvas 245 725 223 198 OSCreceive 0;
#X obj 32 81 oscparse;
#X obj 32 51 netreceive -u -b;
#X obj 32 104 list trim;
#X obj 32 27 inlet;
#X obj 32 127 outlet;
#X connect 0 0 2 0;
#X connect 1 0 0 0;
#X connect 2 0 4 0;
#X connect 3 0 1 0;
#X restore 256 135 pd OSCreceive;
#X obj 34 450 rotateXYZ;
#X obj 280 340 * -1;
#X obj 34 327 rotateXYZ 270 0 0;
#X obj 303 292 * -1;
#X obj 257 393 * -1;
#X obj 7 25 cnv 15 20 20 empty empty 1 6 10 0 14 -222038 -262144 0
;
#X obj 232 71 cnv 15 20 20 empty empty 2 6 10 0 14 -222038 -262144
0;
#X obj 7 25 cnv 15 20 20 empty empty 1 6 10 0 14 -222038 -262144 0
;
#X obj 467 79 cnv 15 20 20 empty empty 3 6 10 0 14 -222038 -262144
0;
#X text 497 80 Launch Sensors2OSD on Android phone. Activate sending
on port 9000 to IP of computer Activate sending of orientation Change
orientation of phone and observe GEM window;
#X msg 34 21 reset \, dimen 800 800 \, title Torch \, lighting 1 \,
create \, 1;
#N canvas 2034 512 718 432 background 1;
#X obj 91 116 separator;
#X obj 250 114 separator;
#X obj 250 161 rotateXYZ 0 90 0;
#X obj 410 116 separator;
#X obj 91 140 translateXYZ 0 1.5 -5;
#X obj 250 138 translateXYZ 3 1.5 -2;
#X obj 410 139 translateXYZ 0 -1.5 -2;
#X msg 514 232 3;
#X obj 514 208 loadbang;
#X obj 410 163 rotateXYZ 90 0 0;
#X obj 253 53 rotateXYZ 5 24 0;
#X obj 250 293 mesh_square 200;
#X obj 410 294 mesh_square 200;
#X obj 91 295 mesh_square 200;
#X obj 253 21 gemhead 20;
#X connect 0 0 4 0;
#X connect 1 0 5 0;
#X connect 2 0 11 0;
#X connect 3 0 6 0;
#X connect 4 0 13 0;
#X connect 5 0 2 0;
#X connect 6 0 9 0;
#X connect 7 0 11 1;
#X connect 7 0 12 1;
#X connect 7 0 13 1;
#X connect 8 0 7 0;
#X connect 9 0 12 0;
#X connect 10 0 0 0;
#X connect 10 0 1 0;
#X connect 10 0 3 0;
#X connect 14 0 10 0;
#X restore 32 227 pd background;
#N canvas 1199 504 585 445 phonebrick 0;
#X obj 73 242 pix_texture;
#X obj 73 192 alpha;
#X obj 73 263 rectangle 0.45 1;
#X obj 73 220 pix_image xperia-z3plus.png;
#X obj 71 3 inlet;
#X obj 73 133 cuboid 0.45 1 0.03;
#X obj 73 165 translateXYZ 0 0 0.031;
#X obj 313 343 outlet;
#X obj 311 38 separator;
#X obj 70 35 separator;
#X obj 73 104 colorRGB 0.1 0.1 0.1;
#X obj 79 64 pix_separator;
#X obj 320 67 pix_separator;
#X obj 311 128 colorRGB 1 1 1;
#X obj 311 302 circle 0.08;
#X obj 309 231 translateXYZ -0.29 -0.68 -0.031;
#X connect 0 0 2 0;
#X connect 1 0 3 0;
#X connect 3 0 0 0;
#X connect 4 0 9 0;
#X connect 4 0 8 0;
#X connect 5 0 6 0;
#X connect 6 0 1 0;
#X connect 8 0 12 0;
#X connect 9 0 11 0;
#X connect 10 0 5 0;
#X connect 11 0 10 0;
#X connect 12 0 13 0;
#X connect 13 0 15 0;
#X connect 14 0 7 0;
#X connect 15 0 14 0;
#X restore 34 529 pd phonebrick;
#X obj 476 460 teapot;
#X obj 476 256 translateXYZ 0 -0.65 -2.16;
#X obj 256 202 route orientation;
#X floatatom 215 573 5 0 0 1 linear_attenuation - -, f 5;
#X floatatom 229 610 5 0 0 2 cone_cutoff_angle - -, f 5;
#X floatatom 283 636 5 0 0 2 decay_at_edges - -, f 5;
#X obj 272 660 t b f;
#X obj 229 659 t b f;
#X obj 67 579 loadbang;
#X obj 476 412 rotateXYZ 5 -186 0;
#X obj 558 317 tgl 15 0 empty empty empty 17 7 0 10 -262144 -1 -1 1
1;
#X obj 558 337 metro 3000;
#X obj 558 387 line;
#X obj 34 720 spot_light;
#X msg 50 642 0.8 0.8 1;
#X obj 215 694 pack f f f;
#X msg 127 642 0 49 2;
#X obj 557 277 loadbang;
#X msg 558 298 1;
#X msg 558 361 -186 \, 186 3000;
#N canvas 1104 164 311 529 mousemove 0;
#X obj 120 2 gemmouse;
#X obj 120 73 pack;
#X obj 120 95 spigot;
#X obj 120 116 unpack;
#X obj 120 241 t f f;
#X obj 17 3 gemkeyname;
#X obj 17 51 route 1;
#X obj 120 218 +;
#X obj 120 266 * -1;
#X obj 177 271 t f f;
#X obj 177 219 +;
#X obj 177 296 * -1;
#X obj 17 134 t f f f;
#X text 42 111 reset;
#N canvas 1072 230 231 337 coordinates 0;
#X obj 21 51 inlet;
#X obj 21 309 outlet;
#X obj 148 53 atan;
#X msg 148 32 1;
#X obj 148 75 / 45;
#X obj 148 11 loadbang;
#X text 22 28 r phi theta;
#X obj 73 120 *;
#X obj 127 119 *;
#X obj 73 169 cos;
#X obj 100 169 sin;
#X obj 73 144 t f f;
#X obj 127 169 cos;
#X obj 154 170 sin;
#X obj 127 144 t f f;
#X obj 73 196 *;
#X obj 100 196 *;
#X obj 21 242 *;
#X obj 49 242 *;
#X obj 78 242 *;
#X obj 21 196 t f f f;
#X obj 21 286 pack f f f;
#X obj 21 77 unpack f f f;
#X connect 0 0 22 0;
#X connect 2 0 4 0;
#X connect 3 0 2 0;
#X connect 4 0 8 1;
#X connect 4 0 7 1;
#X connect 5 0 3 0;
#X connect 7 0 11 0;
#X connect 8 0 14 0;
#X connect 9 0 15 0;
#X connect 10 0 16 0;
#X connect 11 0 9 0;
#X connect 11 1 10 0;
#X connect 12 0 15 1;
#X connect 12 0 16 1;
#X connect 13 0 19 1;
#X connect 14 0 12 0;
#X connect 14 1 13 0;
#X connect 15 0 17 1;
#X connect 16 0 18 1;
#X connect 17 0 21 0;
#X connect 18 0 21 1;
#X connect 19 0 21 2;
#X connect 20 0 17 0;
#X connect 20 1 18 0;
#X connect 20 2 19 0;
#X connect 21 0 1 0;
#X connect 22 0 20 0;
#X connect 22 1 7 0;
#X connect 22 2 8 0;
#X restore 120 431 pd coordinates;
#X obj 120 294 t b f;
#X obj 161 31 t f f;
#X obj 161 52 -;
#X obj 120 30 t f f;
#X obj 120 51 -;
#X obj 177 136 * 0.5;
#X obj 120 138 * 0.5;
#X obj 177 243 clip -90 90;
#X msg 120 453 view \$2 \$3 \$1 0 0 0 0 1 0;
#X msg 17 112 0;
#X obj 23 326 + 2;
#X obj 21 299 * 26;
#X obj 120 410 pack f f f;
#X obj 17 26 pack f s;
#X obj 17 75 route r;
#X obj 120 476 s gemwin-viewport;
#X floatatom 26 257 5 0 0 0 - - -, f 5;
#X floatatom 34 369 5 0 0 0 - - -, f 5;
#X obj 120 388 f 4;
#X connect 0 0 18 0;
#X connect 0 1 16 0;
#X connect 0 2 2 1;
#X connect 1 0 2 0;
#X connect 2 0 3 0;
#X connect 3 0 21 0;
#X connect 3 1 20 0;
#X connect 4 0 8 0;
#X connect 4 1 7 1;
#X connect 5 0 28 0;
#X connect 5 1 28 1;
#X connect 6 0 29 0;
#X connect 7 0 4 0;
#X connect 8 0 15 0;
#X connect 9 0 11 0;
#X connect 9 1 10 1;
#X connect 10 0 22 0;
#X connect 11 0 27 2;
#X connect 12 0 7 0;
#X connect 12 1 7 1;
#X connect 12 1 10 0;
#X connect 12 2 10 1;
#X connect 14 0 23 0;
#X connect 15 0 33 0;
#X connect 15 1 27 1;
#X connect 16 0 17 1;
#X connect 16 1 17 0;
#X connect 17 0 1 1;
#X connect 18 0 19 1;
#X connect 18 1 19 0;
#X connect 19 0 1 0;
#X connect 20 0 10 0;
#X connect 21 0 7 0;
#X connect 22 0 9 0;
#X connect 23 0 30 0;
#X connect 24 0 12 0;
#X connect 25 0 32 0;
#X connect 25 0 33 0;
#X connect 26 0 25 0;
#X connect 27 0 14 0;
#X connect 28 0 6 0;
#X connect 29 0 24 0;
#X connect 31 0 26 0;
#X connect 33 0 27 0;
#X restore 472 176 pd mousemove;
#X text 566 175 press r to reset viewport;
#X obj 65 82 r gemwin-viewport;
#X obj 34 292 translateXYZ 0.6 -0.5 1;
#X obj 476 435 colorRGB 0.9 0.9 0.75;
#N canvas 1953 224 624 399 lightoptions 0;
#X text 255 34 ambient R G B : the ambient lighting color;
#X text 261 88 specular R G B : the specular lighting color;
#X text 189 125 shininess num : the shininess value;
#X text 124 174 fogmode 0/1/2/3 : set the fog mode (OFF/LINEAR/EXP/EXP^2)
;
#X text 290 295 fogcolor R G B : the color of the fog;
#X text 211 215 fog num : the fog density;
#N canvas 714 134 566 458 color 0;
#X obj 103 100 hsl 128 15 0 1 0 0 empty empty R 12 8 1 12 -261689 -1
-1 0 1;
#X obj 236 100 hsl 128 15 0 1 0 0 empty empty G 12 8 1 12 -225271 -1
-1 6800 1;
#X obj 370 100 hsl 128 15 0 1 0 0 empty empty B 12 8 1 12 -228992 -1
-1 4500 1;
#X obj 100 329 outlet;
#X obj 132 253 list;
#X msg 132 273 set ambient \$1 \$2 \$3;
#X obj 233 144 t b f;
#X obj 367 144 t b f;
#X obj 100 201 pack 0 0 0;
#X obj 100 230 t b a;
#X connect 0 0 8 0;
#X connect 1 0 6 0;
#X connect 2 0 7 0;
#X connect 4 0 5 0;
#X connect 5 0 3 0;
#X connect 6 0 8 0;
#X connect 6 1 8 1;
#X connect 7 0 8 0;
#X connect 7 1 8 2;
#X connect 8 0 9 0;
#X connect 9 0 3 0;
#X connect 9 1 4 0;
#X coords 0 -1 1 1 400 13 1 100 100;
#X restore 27 13 pd color sliders;
#X msg 27 35 ambient 0 0.535433 0.354331;
#N canvas 714 134 566 366 color 0;
#X obj 103 100 hsl 128 15 0 1 0 0 empty empty R 12 8 1 12 -261689 -1
-1 12700 1;
#X obj 236 100 hsl 128 15 0 1 0 0 empty empty G 12 8 1 12 -225271 -1
-1 8300 1;
#X obj 370 100 hsl 128 15 0 1 0 0 empty empty B 12 8 1 12 -228992 -1
-1 9500 1;
#X obj 100 299 outlet;
#X obj 132 223 list;
#X msg 132 242 set specular \$1 \$2 \$3;
#X obj 233 124 t b f;
#X obj 367 124 t b f;
#X obj 100 171 pack 0 0 0;
#X obj 100 199 t b a;
#X connect 0 0 8 0;
#X connect 1 0 6 0;
#X connect 2 0 7 0;
#X connect 4 0 5 0;
#X connect 5 0 3 0;
#X connect 6 0 8 0;
#X connect 6 1 8 1;
#X connect 7 0 8 0;
#X connect 7 1 8 2;
#X connect 8 0 9 0;
#X connect 9 0 3 0;
#X connect 9 1 4 0;
#X coords 0 -1 1 1 400 13 1 100 100;
#X restore 34 67 pd color sliders;
#X msg 34 89 specular 1 0.653543 0.748031;
#N canvas 710 134 570 462 color 0;
#X obj 103 100 hsl 128 15 0 1 0 0 empty empty R 12 8 1 12 -261689 -1
-1 5200 1;
#X obj 236 100 hsl 128 15 0 1 0 0 empty empty G 12 8 1 12 -225271 -1
-1 4100 1;
#X obj 370 100 hsl 128 15 0 1 0 0 empty empty B 12 8 1 12 -228992 -1
-1 6000 1;
#X obj 100 299 outlet;
#X obj 132 223 list;
#X msg 132 242 set fogcolor \$1 \$2 \$3;
#X obj 233 125 t b f;
#X obj 367 125 t b f;
#X obj 100 171 pack 0 0 0;
#X obj 100 200 t b a;
#X connect 0 0 8 0;
#X connect 1 0 6 0;
#X connect 2 0 7 0;
#X connect 4 0 5 0;
#X connect 5 0 3 0;
#X connect 6 0 8 0;
#X connect 6 1 8 1;
#X connect 7 0 8 0;
#X connect 7 1 8 2;
#X connect 8 0 9 0;
#X connect 9 0 3 0;
#X connect 9 1 4 0;
#X coords 0 -1 1 1 400 13 1 100 100;
#X restore 46 274 pd color sliders;
#X msg 46 297 fogcolor 0.409449 0.322835 0.472441;
#X msg 51 186 fogmode 2;
#N canvas 889 134 348 479 fog 0;
#X obj 84 239 outlet;
#X obj 100 101 hradio 15 1 0 4 empty empty empty 0 -6 0 10 -262144
-1 -1 2;
#X msg 207 182 set fogmode \$1;
#X obj 84 140 trigger bang float;
#X connect 1 0 3 0;
#X connect 2 0 0 0;
#X connect 3 0 0 0;
#X connect 3 1 2 0;
#X coords 0 -1 1 1 60 13 1 100 100;
#X restore 51 162 pd fog;
#X msg 42 136 shininess 0.653543;
#N canvas 889 134 356 487 fog 0;
#X obj 84 239 outlet;
#X obj 84 140 trigger bang float;
#X msg 207 182 set shininess \$1;
#X obj 103 101 hsl 128 15 0 1 0 0 empty empty empty -2 -6 0 10 -262144
-1 -1 8300 1;
#X connect 1 0 0 0;
#X connect 1 1 2 0;
#X connect 2 0 0 0;
#X connect 3 0 1 0;
#X coords 0 -1 1 1 133 13 1 100 100;
#X restore 42 114 pd fog;
#X msg 52 236 fog 0.0393701;
#N canvas 889 134 364 495 fog 0;
#X obj 84 239 outlet;
#X obj 84 140 trigger bang float;
#X obj 103 101 hsl 128 15 0 1 0 0 empty empty empty -2 -6 0 10 -262144
-1 -1 500 1;
#X msg 207 182 set fog \$1;
#X connect 1 0 0 0;
#X connect 1 1 3 0;
#X connect 2 0 1 0;
#X connect 3 0 0 0;
#X coords 0 -1 1 1 133 13 1 100 100;
#X restore 52 214 pd fog;
#X obj 24 344 outlet;
#X connect 6 0 7 0;
#X connect 7 0 18 0;
#X connect 8 0 9 0;
#X connect 9 0 18 0;
#X connect 10 0 11 0;
#X connect 11 0 18 0;
#X connect 12 0 18 0;
#X connect 13 0 12 0;
#X connect 14 0 18 0;
#X connect 15 0 14 0;
#X connect 16 0 18 0;
#X connect 17 0 16 0;
#X restore 72 105 pd lightoptions;
#X obj 34 261 gemhead 2;
#X obj 476 232 gemhead 10;
#X connect 0 0 12 0;
#X connect 2 0 1 0;
#X connect 4 0 5 0;
#X connect 4 1 6 0;
#X connect 4 2 7 0;
#X connect 5 0 17 0;
#X connect 6 0 14 0;
#X connect 7 0 16 0;
#X connect 8 0 12 0;
#X connect 9 0 13 1;
#X connect 10 0 13 3;
#X connect 11 0 13 2;
#X connect 12 0 28 0;
#X connect 13 0 25 0;
#X connect 14 0 9 0;
#X connect 15 0 13 0;
#X connect 16 0 11 0;
#X connect 23 0 1 0;
#X connect 25 0 39 0;
#X connect 27 0 35 0;
#X connect 28 0 4 0;
#X connect 29 0 41 0;
#X connect 30 0 33 0;
#X connect 31 0 32 0;
#X connect 32 0 41 0;
#X connect 32 1 41 2;
#X connect 33 0 41 0;
#X connect 33 1 41 1;
#X connect 34 0 40 0;
#X connect 34 0 42 0;
#X connect 35 0 50 0;
#X connect 36 0 37 0;
#X connect 37 0 45 0;
#X connect 38 0 35 2;
#X connect 40 0 39 1;
#X connect 41 0 39 2;
#X connect 42 0 39 2;
#X connect 43 0 44 0;
#X connect 44 0 36 0;
#X connect 45 0 38 0;
#X connect 48 0 1 0;
#X connect 49 0 15 0;
#X connect 50 0 26 0;
#X connect 51 0 1 0;
#X connect 52 0 49 0;
#X connect 53 0 27 0;
