#N canvas 898 482 881 523 10;
#X obj 23 72 inlet;
#X obj 23 386 translateXYZ 0 0.5 0;
#X obj 23 122 separator;
#X obj 197 126 separator;
#X obj 198 434 translateXYZ 0.5 0 0;
#X obj 360 175 / 3;
#X obj 360 254 * -1;
#X obj 360 127 t b f;
#X msg 360 152 3;
#X obj 360 199 * 2;
#X obj 360 102 - 1;
#X obj 360 234 + 3;
#X obj 343 76 \$1;
#X obj 343 47 loadbang;
#X obj 23 332 until \$1;
#X obj 23 354 gemlist;
#X obj 23 203 t a a;
#X obj 23 226 route gem_state;
#X obj 23 248 route float;
#X msg 23 309 13;
#X msg 343 284 set \$1;
#X obj 198 336 until \$1;
#X obj 198 358 gemlist;
#X obj 197 207 t a a;
#X obj 197 230 route gem_state;
#X obj 197 252 route float;
#X msg 198 313 13;
#X obj 197 150 rotateXYZ 90 0 0;
#X obj 23 151 rotateXYZ 0 90 0;
#X obj 23 182 translateXYZ 0 -3.5 -3;
#X obj 197 181 translateXYZ -3.5 0 -3;
#X obj 23 457 tube 0.016 0.016 6 90 12;
#X obj 198 457 tube 0.016 0.016 6 90 12;
#X obj 263 29 int;
#X obj 263 51 t f f f;
#X obj 263 9 inlet;
#X connect 0 0 2 0;
#X connect 0 0 3 0;
#X connect 1 0 31 0;
#X connect 2 0 28 0;
#X connect 3 0 27 0;
#X connect 4 0 32 0;
#X connect 5 0 9 0;
#X connect 6 0 29 2;
#X connect 6 0 30 1;
#X connect 7 0 8 0;
#X connect 7 1 5 1;
#X connect 8 0 5 0;
#X connect 9 0 4 1;
#X connect 9 0 1 2;
#X connect 9 0 11 0;
#X connect 10 0 7 0;
#X connect 11 0 6 0;
#X connect 12 0 10 0;
#X connect 12 0 20 0;
#X connect 13 0 12 0;
#X connect 14 0 15 0;
#X connect 15 0 1 0;
#X connect 16 0 17 0;
#X connect 16 1 15 1;
#X connect 17 0 18 0;
#X connect 18 1 19 0;
#X connect 19 0 14 0;
#X connect 20 0 19 0;
#X connect 20 0 26 0;
#X connect 21 0 22 0;
#X connect 22 0 4 0;
#X connect 23 0 24 0;
#X connect 23 1 22 1;
#X connect 24 0 25 0;
#X connect 25 1 26 0;
#X connect 26 0 21 0;
#X connect 27 0 30 0;
#X connect 28 0 29 0;
#X connect 29 0 16 0;
#X connect 30 0 23 0;
#X connect 33 0 34 0;
#X connect 34 0 14 1;
#X connect 34 1 21 1;
#X connect 34 2 12 0;
#X connect 35 0 33 0;
